# xmcd
#
# Track frame offsets:
#	150
#	20175
#	31831
#	51608
#	63952
#	75472
#	88666
#	102429
#	115199
#
# Disc length: 1700 seconds
#
# Revision: 1
# Processed by: cddbd v1.5.1PL0 Copyright (c) Steve Scherf et al.
# Submitted via: audiograbber 1.82.02
#
DISCID=7206a209
DTITLE=Hank Snow - Legend Of Old Doc Brown
DYEAR=1900
DGENRE=Country
TTITLE0=Old Doc Brown
TTITLE1=Ninety Miles and Hour
TTITLE2=The Blind Man
TTITLE3=The Horses Prayer
TTITLE4=The Restless One
TTITLE5=The Queen of Draw Poker Town
TTITLE6=That Pioneer Mother Of Mine
TTITLE7=These Hands
TTITLE8=I'm Asking For A Friend
EXTD=
EXTT0=
EXTT1=
EXTT2=
EXTT3=
EXTT4=
EXTT5=
EXTT6=
EXTT7=
EXTT8=
PLAYORDER=
